HIERARCHY
ROOT Hips
{
	OFFSET 0.000000 0.000000 0.000000 
	CHANNELS 6 Xposition Yposition Zposition Zrotation Yrotation Xrotation
	JOINT LeftUpLeg
	{
		OFFSET 1.363060 -1.794630 0.839290 
		CHANNELS 3 Zrotation Yrotation Xrotation
		JOINT LeftLeg
		{
			OFFSET 2.448110 -6.726130 0.000000 
			CHANNELS 3 Zrotation Yrotation Xrotation
			JOINT LeftFoot
			{
				OFFSET 2.562200 -7.039590 0.000000 
				CHANNELS 3 Zrotation Yrotation Xrotation
				JOINT LeftToeBase
				{
					OFFSET 0.157640 -0.433110 2.322550 
					CHANNELS 3 Zrotation Yrotation Xrotation
					End Site
					{
						OFFSET 0.000000 0.000000 0.000000 
					}
				}
			}
		}
	}
	JOINT RightUpLeg
	{
		OFFSET -1.305520 -1.794630 0.839290 
		CHANNELS 3 Zrotation Yrotation Xrotation
		JOINT RightLeg
		{
			OFFSET -2.542530 -6.985550 0.000000 
			CHANNELS 3 Zrotation Yrotation Xrotation
			JOINT RightFoot
			{
				OFFSET -2.568260 -7.056230 0.000000 
				CHANNELS 3 Zrotation Yrotation Xrotation
				JOINT RightToeBase
				{
					OFFSET -0.164730 -0.452590 2.363150 
					CHANNELS 3 Zrotation Yrotation Xrotation
					End Site
					{
						OFFSET 0.000000 0.000000 0.000000 
					}
				}
			}
		}
	}
	JOINT Spine
	{
		OFFSET 0.028270 2.035590 -0.193380 
		CHANNELS 3 Zrotation Yrotation Xrotation
		JOINT Spine1
		{
			OFFSET 0.056720 2.048850 -0.042750 
			CHANNELS 3 Zrotation Yrotation Xrotation
			JOINT Neck1
			{
				OFFSET -0.054170 1.746240 0.172020 
				CHANNELS 3 Zrotation Yrotation Xrotation
				JOINT Head
				{
					OFFSET 0.104070 1.761360 -0.123970 
					CHANNELS 3 Zrotation Yrotation Xrotation
					End Site
					{
						OFFSET 0.000000 0.000000 0.000000 
					}
				}
			}
			JOINT LeftArm
			{
				OFFSET 3.362410 1.200890 -0.311210 
				CHANNELS 3 Zrotation Yrotation Xrotation
				JOINT LeftForeArm
				{
					OFFSET 4.983000 -0.000000 -0.000000 
					CHANNELS 3 Zrotation Yrotation Xrotation
					JOINT LeftHand
					{
						OFFSET 3.483560 -0.000000 -0.000000 
						CHANNELS 3 Zrotation Yrotation Xrotation
						JOINT LeftHandIndex1
						{
							OFFSET 0.715260 -0.000000 -0.000000 
							CHANNELS 3 Zrotation Yrotation Xrotation
							End Site
							{
								OFFSET 0.000000 0.000000 0.000000 
							}
						}
					}
				}
			}
			JOINT RightArm
			{
				OFFSET -3.136600 1.374050 -0.404650 
				CHANNELS 3 Zrotation Yrotation Xrotation
				JOINT RightForeArm
				{
					OFFSET -5.241900 -0.000000 -0.000000 
					CHANNELS 3 Zrotation Yrotation Xrotation
					JOINT RightHand
					{
						OFFSET -3.444170 -0.000000 -0.000000 
						CHANNELS 3 Zrotation Yrotation Xrotation
						JOINT RightHandIndex1
						{
							OFFSET -0.622530 -0.000000 -0.000000 
							CHANNELS 3 Zrotation Yrotation Xrotation
							End Site
							{
								OFFSET 0.000000 0.000000 0.000000 
							}
						}
					}
				}
			}
		}
	}
}
MOTION
Frames: 18
Frame Time: 0.041667
5.897742 17.447148 -0.039372 -114.319565 -84.330713 114.085921 -26.465429 -30.857928 16.463932 -11.200680 -0.293910 3.776446 6.414487 -12.177355 -35.150300 1.751200 -8.327300 -23.712700 46.676907 25.702673 24.210953 14.422035 3.857888 -2.131650 -8.101310 -13.968488 -53.897768 -1.229900 -7.033300 19.814200 1.303303 1.691856 -4.699125 0.790452 0.609730 -15.152514 1.547056 -4.065056 16.933331 -0.433200 -2.832800 12.010200 -54.861024 -6.295710 60.898578 38.315556 -44.501706 -13.502461 -1.185040 1.185766 6.876829 -7.125000 0.000000 0.000000 52.496648 4.804228 73.408863 -52.386255 54.392576 -21.181531 0.323077 -1.875525 18.939362 7.125000 0.000000 0.000000 
5.892334 17.451259 -0.044781 -114.593885 -84.209923 114.149099 -26.398818 -30.675903 16.566144 -11.179180 -0.247289 3.950378 6.439052 -12.364742 -35.047723 1.758800 -8.344400 -23.765100 46.833938 25.383458 24.278784 14.451897 3.815712 -2.012483 -8.052200 -13.982633 -53.689694 -1.175900 -6.882600 19.368200 1.332357 1.681855 -4.701078 0.932130 0.625461 -15.238354 1.457744 -4.003897 16.785970 -0.471800 -2.813600 11.869500 -50.921508 -7.911120 60.587165 41.086706 -46.064368 -15.345821 -1.027303 1.214509 8.167275 -7.125000 0.000000 0.000000 49.730059 6.748132 71.851585 -56.218677 55.705247 -24.045848 0.206994 -1.889328 20.930770 7.125000 0.000000 0.000000 
5.883464 17.451367 -0.047593 -114.080599 -84.115283 113.476549 -26.351771 -30.585569 16.668329 -11.165589 -0.195991 4.135492 6.447061 -12.259312 -34.987461 1.830700 -8.504100 -24.255900 47.048272 25.239120 24.454762 14.473260 3.811970 -1.973479 -8.113487 -13.929463 -53.789997 -1.168800 -6.862700 19.309300 1.358130 1.635159 -4.697406 1.054230 0.615043 -15.247416 1.385563 -3.945676 16.621804 -0.517200 -2.781100 11.701300 -46.868253 -9.479264 59.725014 43.614983 -47.362689 -17.186956 -0.838607 1.267534 9.532918 -7.125000 0.000000 0.000000 46.832621 8.658031 69.773305 -60.057005 56.781726 -27.112181 0.093930 -1.931902 22.479122 7.125000 0.000000 0.000000 
5.874811 17.449420 -0.049973 -113.956026 -84.081305 113.263861 -26.300504 -30.456220 16.656613 -11.155061 -0.159949 4.254412 6.428143 -12.249590 -34.848644 1.864900 -8.578800 -24.486300 46.974580 24.924656 24.345716 14.475559 3.739365 -1.826008 -8.052559 -13.675463 -53.475942 -1.186900 -6.913800 19.460200 1.388428 1.522539 -4.717530 1.234755 0.579050 -15.273318 1.298459 -3.813764 16.644685 -0.574600 -2.720800 11.692000 -42.844616 -10.746056 58.122352 45.828101 -48.394778 -18.968058 -0.610413 1.328988 12.159238 -7.125000 0.000000 0.000000 43.683277 10.679258 67.407357 -64.108665 57.625742 -30.415019 0.011359 -1.958945 23.210644 7.125000 0.000000 0.000000 
5.866698 17.449852 -0.051487 -114.828053 -84.051502 114.071717 -26.251954 -30.258841 16.573613 -11.141019 -0.107394 4.387047 6.412158 -12.348405 -34.706221 1.856300 -8.560100 -24.428600 46.726715 24.445064 24.051204 14.483799 3.643341 -1.634931 -7.812019 -13.674157 -52.749045 -1.136100 -6.769400 19.033900 1.408132 1.418420 -4.751621 1.395110 0.544945 -15.339088 1.161900 -3.659897 16.729133 -0.670600 -2.650000 11.720500 -38.689453 -11.596207 55.899961 47.875658 -49.261559 -20.769917 -0.339420 1.362919 16.188582 -7.125000 0.000000 0.000000 40.362472 12.746509 64.663517 -68.277684 58.175831 -33.800893 -0.053726 -1.957838 23.414583 7.125000 0.000000 0.000000 
5.856639 17.452232 -0.053542 -115.768825 -83.974687 114.954737 -26.122616 -30.013553 16.438943 -11.116116 -0.027838 4.584788 6.390582 -12.401711 -34.509196 1.852100 -8.550900 -24.400200 46.619042 24.106808 23.873300 14.495452 3.579098 -1.505469 -7.643069 -13.732600 -52.248283 -1.108700 -6.689700 18.799400 1.420837 1.355165 -4.772886 1.555409 0.527003 -15.365520 1.154493 -3.535415 16.742524 -0.677800 -2.585900 11.682400 -34.532325 -12.248228 53.137494 49.499169 -49.888007 -22.416614 -0.046259 1.350171 21.129157 -7.125000 0.000000 0.000000 36.734197 14.579494 61.889667 -71.190497 58.366582 -36.387400 -0.086159 -1.945343 25.937300 7.125000 0.000000 0.000000 
5.845281 17.455693 -0.057112 -116.773419 -83.875521 115.871022 -25.971351 -29.759419 16.348595 -11.084248 0.038399 4.766103 6.376693 -12.609672 -34.267029 1.837600 -8.519200 -24.302600 46.460753 23.623556 23.595395 14.508789 3.469443 -1.291709 -7.402863 -13.812999 -51.521014 -1.035400 -6.471800 18.159700 1.459225 1.259704 -4.777785 1.834827 0.507616 -15.354075 1.256910 -3.357037 16.753756 -0.606800 -2.497500 11.665900 -30.777664 -12.765861 49.302931 50.499123 -50.249367 -23.769819 0.202009 1.277312 25.826039 -7.125000 0.000000 0.000000 32.962586 16.489989 58.612726 -74.082416 58.426382 -39.000877 -0.080009 -1.923143 26.545415 7.125000 0.000000 0.000000 
5.831869 17.459047 -0.057220 -118.598405 -83.864865 117.581019 -26.081390 -29.550313 16.411440 -11.073767 0.096679 4.924507 6.401519 -12.887796 -34.256364 1.826800 -8.495500 -24.229600 45.985599 22.860806 23.121199 14.517687 3.299028 -0.940752 -6.956510 -14.122962 -50.230883 -0.865400 -5.931700 16.586200 1.470755 1.161613 -4.781824 2.058365 0.485102 -15.341100 1.316511 -3.182523 16.853261 -0.577400 -2.406900 11.728100 -27.322356 -13.039515 44.981115 51.226054 -50.493832 -24.918650 0.335291 1.156685 31.366764 -7.125000 0.000000 0.000000 29.219459 18.319514 54.951441 -76.174053 58.371319 -41.027383 -0.070530 -1.883386 27.058010 7.125000 0.000000 0.000000 
5.816509 17.460561 -0.054516 -120.874548 -83.878207 119.730839 -26.267141 -29.291420 16.461062 -11.069932 0.184599 5.139803 6.436774 -13.065369 -34.356251 1.840600 -8.525900 -24.323100 45.553606 22.259851 22.812034 14.515072 3.163375 -0.638148 -6.632736 -14.314584 -49.237723 -0.732600 -5.468300 15.249200 1.439395 1.131556 -4.789653 2.112894 0.477733 -15.370259 1.221210 -3.089414 16.956847 -0.676300 -2.341600 11.782400 -24.102706 -13.351206 39.973751 51.836410 -50.653005 -25.930429 0.420208 1.017234 35.526767 -7.125000 0.000000 0.000000 25.647562 19.729473 50.910047 -77.598439 58.284010 -42.559172 -0.070912 -1.825010 27.680402 7.125000 0.000000 0.000000 
5.802989 17.462400 -0.053758 -122.738625 -83.823437 121.506394 -26.259778 -29.034945 16.383163 -11.054528 0.275121 5.354871 6.443169 -13.078752 -34.337438 1.875700 -8.602300 -24.558900 45.346935 21.936931 22.637910 14.500476 3.060555 -0.426417 -6.532973 -14.133941 -48.793029 -0.715900 -5.407100 15.073400 1.389652 1.164851 -4.796309 2.073449 0.484687 -15.410309 1.153954 -3.031304 17.090358 -0.768900 -2.282400 11.877900 -21.144201 -13.736224 34.765014 52.130608 -50.763209 -26.810455 0.347928 0.855005 38.409342 -7.125000 0.000000 0.000000 22.312927 20.568903 46.372369 -78.502219 58.191978 -43.680291 -0.084181 -1.752427 28.821388 7.125000 0.000000 0.000000 
5.790117 17.464671 -0.053650 -123.918591 -83.748967 122.638318 -26.168321 -28.822401 16.268764 -11.032153 0.345080 5.524561 6.423126 -13.126258 -34.178365 1.893200 -8.640000 -24.675500 45.279933 21.768322 22.515526 14.486396 2.972445 -0.259420 -6.506737 -13.881986 -48.555878 -0.743200 -5.507000 15.360500 1.341724 1.206967 -4.793744 2.026341 0.490951 -15.398758 1.247701 -2.982315 17.252846 -0.754300 -2.223000 12.032100 -18.720452 -14.202649 29.085423 52.679840 -50.853822 -27.528667 0.352240 0.789434 39.363272 -7.125000 0.000000 0.000000 19.163394 21.033440 41.423978 -78.940365 58.111895 -44.405609 -0.081875 -1.675469 30.182308 7.125000 0.000000 0.000000 
5.774541 17.466510 -0.052460 -124.223432 -83.643252 122.844950 -26.079569 -28.631104 16.244655 -11.002328 0.417770 5.732518 6.416814 -13.214242 -34.012008 1.924000 -8.706000 -24.879800 45.190385 21.295469 22.304463 14.497840 2.856153 -0.028667 -6.297028 -14.055704 -47.891059 -0.629600 -5.077300 14.129100 1.342521 1.163635 -4.773614 2.125572 0.471437 -15.356069 1.407803 -2.888542 17.347612 -0.672800 -2.154900 12.151600 -16.756428 -14.484050 22.890491 52.531040 -50.694333 -27.813048 0.337747 0.695518 40.729938 -7.125000 0.000000 0.000000 16.112939 21.438957 36.340415 -79.264276 58.050210 -44.999168 -0.049517 -1.601618 31.003169 7.125000 0.000000 0.000000 
5.758208 17.467916 -0.050189 -124.239328 -83.515597 122.755430 -25.964664 -28.396769 16.192172 -10.964914 0.507594 5.984902 6.406125 -13.309689 -33.804812 1.956500 -8.774800 -25.093400 44.952655 20.521342 21.903949 14.500861 2.674757 0.311944 -5.988927 -14.199499 -46.865947 -0.511000 -4.582000 12.720200 1.331226 1.128667 -4.748008 2.115347 0.442514 -15.338040 1.388971 -2.883950 17.320340 -0.745500 -2.107700 12.165000 -14.825641 -14.702597 16.696025 52.377162 -50.541656 -28.021676 0.300989 0.631067 41.539685 -7.125000 0.000000 0.000000 13.420900 21.640973 31.062498 -79.467374 58.005052 -45.484794 -0.002942 -1.523660 31.113884 7.125000 0.000000 0.000000 
5.744579 17.468565 -0.048026 -124.622657 -83.385451 123.071035 -25.737698 -27.989156 15.912333 -10.911448 0.632107 6.291493 6.339105 -13.482102 -33.345287 1.955200 -8.772100 -25.085100 44.725538 19.918887 21.507605 14.471382 2.469966 0.680924 -5.840944 -13.839224 -46.130724 -0.527600 -4.654700 12.926200 1.261987 1.186286 -4.735782 1.916057 0.434361 -15.377018 1.395851 -3.025130 17.361668 -0.805000 -2.124200 12.239300 -12.908349 -14.932926 10.750238 52.140328 -50.392661 -28.139237 0.223718 0.571196 41.861251 -7.125000 0.000000 0.000000 11.165412 21.473199 25.601582 -79.224789 57.972308 -45.598165 0.049305 -1.438253 30.993706 7.125000 0.000000 0.000000 
5.732140 17.467375 -0.047268 -125.226331 -83.256311 123.582786 -25.463774 -27.510529 15.573395 -10.855653 0.767143 6.627337 6.251366 -13.545514 -32.829775 1.979200 -8.822700 -25.242300 44.554730 19.424643 21.150055 14.437617 2.247802 1.091695 -5.726586 -13.486674 -45.490803 -0.529900 -4.664900 12.955200 1.221506 1.209234 -4.727877 1.832943 0.429309 -15.450066 1.486323 -2.984215 17.445499 -0.792500 -2.065700 12.343400 -11.189258 -14.891294 5.081006 51.768397 -50.197063 -28.113017 0.144141 0.521287 41.521616 -7.125000 0.000000 0.000000 9.130658 21.243271 20.100690 -78.388276 57.953726 -45.164814 0.087777 -1.360181 30.897543 7.125000 0.000000 0.000000 
5.718836 17.464347 -0.045862 -125.842854 -83.185396 124.118346 -25.304736 -27.127621 15.331856 -10.814253 0.885102 6.920776 6.189132 -13.544173 -32.482400 2.018000 -8.903400 -25.493600 44.308081 18.897801 20.759873 14.402047 2.017400 1.529678 -5.546948 -13.334612 -44.705068 -0.470000 -4.396900 12.196000 1.242299 1.126167 -4.707214 1.989379 0.412515 -15.460956 1.565715 -2.699809 17.466995 -0.757800 -1.914600 12.407700 -9.676004 -14.588968 -0.395233 50.913188 -49.813981 -27.676374 0.071911 0.481520 41.016390 -7.125000 0.000000 0.000000 7.173765 21.053785 14.611028 -77.107566 57.938816 -44.320783 0.119709 -1.285638 30.685383 7.125000 0.000000 0.000000 
5.703152 17.460994 -0.043266 -126.391254 -83.160108 124.635261 -25.172392 -26.708257 15.022982 -10.752849 1.016139 7.220260 6.107493 -13.987174 -31.924568 1.942600 -8.745500 -25.002300 43.999460 18.385175 20.392232 14.366808 1.833281 1.882855 -5.355524 -13.291761 -43.944429 -0.380200 -3.959900 10.963800 1.245478 1.074157 -4.692021 2.070355 0.403675 -15.453082 1.519437 -2.507548 17.432358 -0.830400 -1.793500 12.431400 -8.229765 -14.493444 -5.614307 49.356900 -49.157732 -26.644355 0.002845 0.448346 41.064019 -7.125000 0.000000 0.000000 5.608236 20.554080 9.168803 -75.580511 57.887696 -43.265218 0.148233 -1.215125 30.496421 7.125000 0.000000 0.000000 
5.684114 17.458289 -0.041211 -126.740579 -83.149185 124.961297 -24.992855 -26.176719 14.603203 -10.660251 1.184323 7.598731 5.990240 -14.792954 -31.083703 1.788200 -8.410200 -23.967200 43.753726 17.969857 20.181728 14.349717 1.738295 2.077640 -5.200971 -13.416046 -43.412228 -0.287100 -3.446000 9.523100 1.201445 1.088239 -4.691219 1.984430 0.403436 -15.483637 1.473070 -2.453644 17.428456 -0.916600 -1.726400 12.477300 -6.810630 -14.772999 -10.392339 47.250577 -48.257663 -25.138668 -0.066110 0.421516 41.642384 -7.125000 0.000000 0.000000 4.450011 19.776159 3.870256 -73.704028 57.773573 -41.919547 0.168323 -1.147027 30.305807 7.125000 0.000000 0.000000 
